<svg width="800" height="800" viewBox="0 0 800 800" fill="none" xmlns="http://www.w3.org/2000/svg">
<path d="M755.794 0H44.1532C19.7846 0 0 19.7451 0 44.1532V755.794C0 780.202 19.7846 799.974 44.1532 799.974H427.28V490.177H323.035V369.427H427.28V280.383C427.28 177.074 490.361 120.789 582.54 120.789C626.733 120.789 664.629 124.095 675.681 125.531V233.517L611.743 233.543C561.623 233.543 551.954 257.372 551.954 292.317V369.388H671.532L655.896 490.124H551.941V799.934H755.781C780.176 799.934 799.974 780.136 799.974 755.794V44.1269C799.96 19.7451 780.189 0 755.794 0Z" fill="black"/>
<rect x="740" width="60" height="66" fill="black"/>
<rect x="740" width="60" height="66" fill="black"/>
<rect x="740" width="60" height="66" fill="black"/>
<rect x="740" y="734" width="60" height="66" fill="black"/>
<rect x="740" y="734" width="60" height="66" fill="black"/>
<rect x="740" y="734" width="60" height="66" fill="black"/>
<rect width="60" height="66" fill="black"/>
<rect width="60" height="66" fill="black"/>
<rect width="60" height="66" fill="black"/>
<rect y="734" width="60" height="66" fill="black"/>
<rect y="734" width="60" height="66" fill="black"/>
<rect y="734" width="60" height="66" fill="black"/>
</svg>
